<?xml version="1.0" encoding="UTF-8"?>
<svg width="43px" height="56px" viewBox="0 0 43 56" version="1.1" xmlns="http://www.w3.org/2000/svg" xmlns:xlink="http://www.w3.org/1999/xlink">
    <!-- Generator: sketchtool 53.2 (72643) - https://sketchapp.com -->
    <title>0AAE9AC9-9C0E-44A8-936B-BB3B01614B74</title>
    <desc>Created with sketchtool.</desc>
    <g id="Page-1" stroke="none" stroke-width="1" fill="none" fill-rule="evenodd">
        <g id="LogginPage" transform="translate(-367.000000, -116.000000)" fill="#FF5600" fill-rule="nonzero">
            <g id="noun_Fire_2475241" transform="translate(367.000000, 116.000000)">
                <path d="M29.7532258,39.921 C31.0016129,41.566 31.5564516,43.358 31.5564516,45.717 C31.5564516,49.847 29.1151613,53.522 25.3422581,55.097 L23.7609677,55.601 C22.2767742,55.951 20.7509677,55.951 19.2598387,55.608 L17.6785484,55.104 C13.8917742,53.529 11.4435484,49.854 11.4435484,45.717 C11.4435484,43.498 12.1509677,41.377 13.4409677,39.641 C13.9264516,41.013 14.7864516,42.56 16.3053226,43.435 C16.7075806,43.666 17.2,43.673 17.6091935,43.47 C18.0253226,43.26 18.3096774,42.854 18.3651613,42.385 C18.3790323,42.315 19.2945161,35.518 25.5433871,29.897 C25.9317742,32.494 26.9651613,36.477 29.7254839,39.872 C29.7324194,39.886 29.7462903,39.9 29.7532258,39.921 Z M39.116129,22.071 C39.0953226,22.043 39.0745161,22.015 39.0606452,21.994 C32.6730645,14.175 31.0570968,4.718 30.6548387,0.133 C15.923871,12.04 13.8779032,27.524 13.8640323,27.685 C13.8016129,28.154 13.5241935,28.56 13.1080645,28.77 C12.6919355,28.98 12.1995161,28.966 11.7972581,28.735 C8.22548387,26.67 6.665,22.309 6.00612903,19.474 C2.16387097,23.499 0,28.861 0,34.517 C0,42.602 4.38322581,49.868 11.3256452,53.62 C9.64032258,51.408 8.66935484,48.65 8.66935484,45.717 C8.66935484,41.839 10.3685484,38.199 13.3369355,35.728 C13.7322581,35.399 14.2801613,35.315 14.7517742,35.518 C15.2303226,35.714 15.5562903,36.169 15.5979032,36.687 C15.6464516,37.205 15.8406452,38.262 16.2706452,39.235 C17.2970968,35.952 19.8285484,30.436 25.8901613,26.033 C26.3132258,25.718 26.875,25.683 27.3396774,25.921 C27.8043548,26.166 28.0956452,26.656 28.0887097,27.181 C28.0887097,27.244 28.0887097,33.516 31.9309677,38.171 C31.9656452,38.22 32.0003226,38.262 32.035,38.318 C33.6024194,40.432 34.3306452,42.784 34.3306452,45.717 C34.3306452,48.65 33.3596774,51.408 31.6674194,53.62 C38.6167742,49.868 43,42.602 43,34.517 C43,29.47 41.8001613,25.634 39.116129,22.071 Z" id="Shape"></path>
            </g>
        </g>
    </g>
</svg>